<?xml version="1.0" encoding="iso-8859-1"?>
<!-- Generator: Adobe Illustrator 16.0.2, SVG Export Plug-In . SVG Version: 6.00 Build 0)  -->
<!DOCTYPE svg PUBLIC "-//W3C//DTD SVG 1.1//EN" "http://www.w3.org/Graphics/SVG/1.1/DTD/svg11.dtd">
<svg version="1.1" xmlns="http://www.w3.org/2000/svg" xmlns:xlink="http://www.w3.org/1999/xlink" x="0px" y="0px" width="1000px"
	 height="1000px" viewBox="0 0 1000 1000" style="enable-background:new 0 0 1000 1000;" xml:space="preserve">
<g id="Layer_1" style="display:none;">
	
		<image style="display:inline;overflow:visible;" width="2000" height="2000" xlink:href="loadio logo teste.png"  transform="matrix(0.5 0 0 0.5 -0.0176 -0.0015)">
	</image>
</g>
<g id="Layer_3">
	<g>
		<path d="M749.794,390.373c-36.505,0-68.85,17.794-88.85,45.176c7.986,19.925,12.389,41.673,12.389,64.452
			c0,22.942-4.468,44.838-12.563,64.879c19.986,27.518,52.413,45.415,89.024,45.415c60.729,0,109.962-49.231,109.962-109.96
			C859.756,439.604,810.523,390.373,749.794,390.373z"/>
		<path d="M342.958,426.569c-19.427-20.447-46.88-33.196-77.311-33.196c-58.889,0-106.628,47.739-106.628,106.628
			s47.74,106.627,106.628,106.627c30.431,0,57.884-12.749,77.311-33.196c-10.445-22.299-16.292-47.181-16.292-73.432
			S332.514,448.867,342.958,426.569z"/>
		<path style="display:none;fill:#FFFFFF;" d="M660.944,435.548c-25.577-63.811-87.993-108.881-160.943-108.881
			c-69.479,0-129.398,40.885-157.042,99.902c-10.445,22.298-16.292,47.18-16.292,73.431s5.847,51.133,16.292,73.432
			c27.644,59.018,87.564,99.901,157.042,99.901c72.787,0,135.085-44.87,160.769-108.454c8.096-20.041,12.563-41.937,12.563-64.879
			C673.333,477.222,668.931,455.473,660.944,435.548z"/>
	</g>
	<circle cx="499" cy="504.833" r="150.833"/>
</g>
</svg>
