<?xml version="1.0" encoding="iso-8859-1"?>
<!-- Generator: Adobe Illustrator 16.0.2, SVG Export Plug-In . SVG Version: 6.00 Build 0)  -->
<!DOCTYPE svg PUBLIC "-//W3C//DTD SVG 1.1//EN" "http://www.w3.org/Graphics/SVG/1.1/DTD/svg11.dtd">
<svg version="1.1" id="Layer_1" xmlns="http://www.w3.org/2000/svg" xmlns:xlink="http://www.w3.org/1999/xlink" x="0px" y="0px"
	 width="841.89px" height="271.691px" viewBox="0 0 841.89 271.691" style="enable-background:new 0 0 841.89 271.691;"
	 xml:space="preserve">
<g>
	<path d="M44.495,50.499h51.978v173.259H44.495V50.499z"/>
	<path d="M113.301,160.642c0-38.859,30.691-66.58,73.759-66.58s73.759,27.721,73.759,66.58c0,38.86-30.691,66.581-73.759,66.581
		S113.301,199.502,113.301,160.642z M187.06,182.671c12.375,0,21.286-9.405,21.286-22.523s-8.911-22.524-21.286-22.524
		s-21.286,9.406-21.286,22.524S174.684,182.671,187.06,182.671z"/>
	<path d="M305.619,213.609c-14.603-10.891-27.474-29.459-27.474-55.69c0-35.685,26.979-63.857,70.046-63.857
		s73.759,27.721,73.759,67.299c0,1.096-0.022,2.136-0.065,3.121l0.065,59.276h-53.216v-8.415
		C350.958,224.651,327.033,227.737,305.619,213.609z M348.191,182.671c12.375,0,21.286-9.405,21.286-22.523
		s-8.911-22.524-21.286-22.524s-21.286,9.406-21.286,22.524S335.815,182.671,348.191,182.671z"/>
	<path d="M432.838,159.404c0-36.879,27.227-65.343,62.868-65.343c13.613,0,24.504,4.207,31.435,12.375V50.499h51.978v104.203
		c0,42.572-29.949,72.521-72.769,72.521C464.024,227.223,432.838,198.264,432.838,159.404z M506.597,183.166
		c12.376,0,21.286-9.653,21.286-23.019c0-13.366-8.91-23.02-21.286-23.02s-21.286,9.653-21.286,23.02
		C485.311,173.513,494.221,183.166,506.597,183.166z"/>
	<path style="display:none;" d="M623.421,41.341c15.594,0,27.227,10.396,27.227,24.504c0,14.355-11.633,24.999-27.227,24.999
		c-15.593,0-27.226-10.644-27.226-24.999C596.195,51.736,607.828,41.341,623.421,41.341z"/>
	<rect x="597.433" y="97.526" width="51.978" height="126.231"/>
	<path d="M666.238,160.642c0-38.859,30.691-66.58,73.759-66.58s73.759,27.721,73.759,66.58c0,38.86-30.691,66.581-73.759,66.581
		S666.238,199.502,666.238,160.642z M739.997,182.671c12.376,0,21.286-9.405,21.286-22.523s-8.91-22.524-21.286-22.524
		s-21.286,9.406-21.286,22.524S727.621,182.671,739.997,182.671z"/>
</g>
</svg>
