<?xml version="1.0" encoding="iso-8859-1"?>
<!-- Generator: Adobe Illustrator 16.0.2, SVG Export Plug-In . SVG Version: 6.00 Build 0)  -->
<!DOCTYPE svg PUBLIC "-//W3C//DTD SVG 1.1//EN" "http://www.w3.org/Graphics/SVG/1.1/DTD/svg11.dtd">
<svg version="1.1" id="Agrupar_1_c&#xF3;pia_xA0_Image_1_"
	 xmlns="http://www.w3.org/2000/svg" xmlns:xlink="http://www.w3.org/1999/xlink" x="0px" y="0px" width="910px" height="1000px"
	 viewBox="0 0 910 1000" style="enable-background:new 0 0 910 1000;" xml:space="preserve">
<g>
	<path style="fill-rule:evenodd;clip-rule:evenodd;" d="M449.085,250.455c4.702,0,9.403,0,14.105,0
		c0.286,0.089,0.569,0.244,0.859,0.259c9.849,0.502,19.713,0.739,29.411,2.884c8.056,1.782,16.215,3.116,24.228,5.061
		c6.687,1.624,13.258,3.749,19.819,5.841c3.837,1.224,7.538,2.87,11.331,4.239c8.117,2.93,15.889,6.599,23.428,10.78
		c4.918,2.728,10.002,5.194,14.731,8.216c6.564,4.194,12.904,8.746,19.264,13.254c3.065,2.173,6.108,4.426,8.895,6.938
		c6.582,5.934,13.104,11.941,19.453,18.121c3.937,3.833,7.778,7.825,11.195,12.118c6.039,7.587,11.931,15.311,17.483,23.258
		c4.094,5.859,7.887,11.986,11.204,18.313c4.615,8.802,8.842,17.821,12.881,26.904c2.505,5.634,4.768,11.446,6.408,17.38
		c2.972,10.741,5.598,21.588,7.995,32.473c2.494,11.319,3.417,22.874,3.831,34.435c0.6,16.75-0.348,33.425-3.082,49.99
		c-2.067,12.527-4.997,24.84-8.941,36.896c-3.709,11.333-8.202,22.352-13.475,33.068c-5.571,11.325-11.946,22.179-19.15,32.505
		c-4.907,7.033-10.219,13.833-15.862,20.289c-6.128,7.011-12.649,13.712-19.376,20.153c-5.417,5.187-11.185,10.064-17.178,14.573
		c-7.307,5.497-14.885,10.662-22.587,15.594c-5.595,3.583-11.458,6.804-17.424,9.733c-7.304,3.587-14.791,6.816-22.294,9.975
		c-4.479,1.887-9.092,3.5-13.733,4.951c-5.863,1.833-11.755,3.662-17.748,4.977c-8.728,1.914-17.515,3.655-26.354,4.925
		c-7.172,1.031-14.45,1.59-21.696,1.774c-15.393,0.393-30.8,0.553-46.023-2.515c-8.829-1.778-17.725-3.248-26.506-5.229
		c-5.83-1.314-11.556-3.149-17.244-5.008c-4.977-1.627-9.866-3.538-14.739-5.462c-3.608-1.425-7.202-2.925-10.674-4.649
		c-6.683-3.32-13.366-6.659-19.874-10.304c-5.287-2.961-10.417-6.23-15.434-9.632c-5.409-3.667-10.777-7.436-15.851-11.545
		c-6.118-4.955-11.943-10.275-17.822-15.519c-2.583-2.303-5.181-4.637-7.436-7.248c-6.383-7.391-12.696-14.846-18.828-22.444
		c-3.359-4.162-6.617-8.473-9.354-13.055c-5.397-9.035-10.688-18.158-15.472-27.526c-3.762-7.368-6.98-15.051-9.932-22.788
		c-4.657-12.205-8.149-24.773-10.704-37.606c-2.558-12.851-4.417-25.803-4.584-38.891c-0.144-11.271,0.062-22.586,0.943-33.817
		c0.748-9.532,2.284-19.052,4.187-28.432c2.627-12.943,6.492-25.561,11.287-37.91c4.734-12.192,10.125-24.061,16.944-35.198
		c5.342-8.725,11.214-17.133,17.041-25.549c2.563-3.701,5.431-7.227,8.457-10.563c6.007-6.622,12.188-13.086,18.367-19.549
		c1.921-2.01,3.983-3.905,6.122-5.683c6.806-5.659,13.551-11.406,20.572-16.79c4.694-3.598,9.71-6.814,14.778-9.875
		c5.817-3.513,11.741-6.889,17.821-9.917c7.095-3.535,14.35-6.769,21.65-9.863c4.611-1.954,9.39-3.542,14.168-5.059
		c5.644-1.792,11.304-3.614,17.072-4.915c8.498-1.917,17.068-3.558,25.663-4.979c5.058-0.836,10.221-1.059,15.342-1.486
		C440.786,250.982,444.938,250.742,449.085,250.455z"/>
	<path style="display:none;fill-rule:evenodd;clip-rule:evenodd;fill:#FFFFFF;" d="M449.085,250.455
		c-4.147,0.287-8.299,0.527-12.442,0.873c-5.122,0.428-10.285,0.65-15.342,1.486c-8.595,1.421-17.166,3.063-25.663,4.979
		c-5.768,1.301-11.428,3.123-17.072,4.915c-4.778,1.518-9.557,3.105-14.168,5.059c-7.3,3.094-14.555,6.328-21.65,9.863
		c-6.08,3.028-12.003,6.404-17.821,9.917c-5.068,3.062-10.084,6.277-14.778,9.875c-7.021,5.383-13.766,11.13-20.572,16.79
		c-2.139,1.778-4.201,3.673-6.122,5.683c-6.178,6.463-12.36,12.928-18.367,19.549c-3.026,3.336-5.894,6.862-8.457,10.563
		c-5.827,8.417-11.699,16.825-17.041,25.549c-6.819,11.137-12.209,23.005-16.944,35.198c-4.795,12.349-8.66,24.967-11.287,37.91
		c-1.903,9.38-3.439,18.9-4.187,28.432c-0.881,11.231-1.087,22.546-0.943,33.817c0.167,13.088,2.026,26.04,4.584,38.891
		c2.555,12.833,6.047,25.401,10.704,37.606c2.952,7.737,6.17,15.42,9.932,22.788c4.784,9.368,10.075,18.491,15.472,27.526
		c2.737,4.582,5.995,8.893,9.354,13.055c6.132,7.599,12.445,15.054,18.828,22.444c2.255,2.611,4.854,4.945,7.436,7.248
		c5.879,5.243,11.704,10.563,17.822,15.519c5.074,4.109,10.442,7.878,15.851,11.545c5.017,3.401,10.147,6.671,15.434,9.632
		c6.508,3.645,13.191,6.983,19.874,10.304c3.472,1.725,7.065,3.225,10.674,4.649c4.874,1.924,9.763,3.835,14.739,5.462
		c5.688,1.858,11.415,3.693,17.244,5.008c8.781,1.98,17.677,3.45,26.506,5.229c15.223,3.067,30.63,2.907,46.023,2.515
		c7.246-0.185,14.524-0.743,21.696-1.774c8.84-1.27,17.627-3.011,26.354-4.925c5.993-1.314,11.885-3.144,17.748-4.977
		c4.642-1.451,9.254-3.064,13.733-4.951c7.503-3.158,14.99-6.388,22.294-9.975c5.966-2.93,11.829-6.15,17.424-9.733
		c7.702-4.932,15.28-10.097,22.587-15.594c5.993-4.509,11.761-9.387,17.178-14.573c6.727-6.441,13.248-13.143,19.376-20.153
		c5.644-6.456,10.955-13.256,15.862-20.289c7.204-10.326,13.579-21.18,19.15-32.505c5.272-10.717,9.766-21.735,13.475-33.068
		c3.944-12.057,6.874-24.369,8.941-36.896c2.734-16.565,3.682-33.24,3.082-49.99c-0.414-11.561-1.337-23.115-3.831-34.435
		c-2.397-10.885-5.023-21.732-7.995-32.473c-1.641-5.934-3.903-11.746-6.408-17.38c-4.039-9.083-8.266-18.102-12.881-26.904
		c-3.317-6.327-7.11-12.455-11.204-18.313c-5.553-7.947-11.444-15.671-17.483-23.258c-3.417-4.293-7.259-8.285-11.195-12.118
		c-6.35-6.18-12.871-12.188-19.453-18.121c-2.786-2.513-5.829-4.765-8.895-6.938c-6.359-4.508-12.699-9.06-19.264-13.254
		c-4.729-3.022-9.813-5.488-14.731-8.216c-7.539-4.181-15.311-7.85-23.428-10.78c-3.793-1.369-7.494-3.015-11.331-4.239
		c-6.562-2.093-13.133-4.218-19.819-5.841c-8.013-1.945-16.172-3.279-24.228-5.061c-9.698-2.146-19.563-2.382-29.411-2.884
		c-0.29-0.015-0.573-0.169-0.859-0.259c149.224,0,298.447,0,447.695,0c0,166.799,0,333.599,0,500.449
		c-303.461,0-606.946,0-910.431,0c0-83.081,0-166.186,0-249.289c0.116,0.961,0.308,1.921,0.338,2.885
		c0.816,25.555,6.496,49.951,17.605,73.005c6.084,12.624,13.483,24.501,22.569,35.162c6.096,7.153,12.672,13.975,19.616,20.305
		c6.044,5.511,12.73,10.376,19.46,15.055c5.302,3.687,10.909,7.061,16.728,9.847c8.073,3.863,16.324,7.477,24.776,10.394
		c7.472,2.578,15.232,4.587,23.023,5.924c25.041,4.298,50.015,4.232,74.862-1.929c8.544-2.119,16.818-4.917,25.048-7.936
		c2.574-0.944,2.592-1.439,0.858-3.543c-2.188-2.655-4.382-5.343-6.221-8.241c-4.954-7.807-9.788-15.691-14.532-23.628
		c-2.223-3.72-4.241-7.575-6.146-11.469c-2.038-4.165-3.96-8.397-5.705-12.692c-2.31-5.688-4.524-11.421-6.542-17.218
		c-1.503-4.32-2.647-8.767-3.92-13.166c-1.171-4.048-2.57-8.054-3.393-12.174c-1.623-8.131-2.969-16.32-4.332-24.502
		c-1.676-10.074-2.902-20.193-2.617-30.442c0.046-1.666-0.053-3.337-0.017-5.004c0.161-7.415,0.22-14.834,0.571-22.239
		c0.207-4.368,0.727-8.739,1.396-13.063c1.222-7.895,2.435-15.804,4.078-23.617c1.299-6.181,3.124-12.261,4.919-18.326
		c2.173-7.339,4.25-14.732,6.95-21.883c2.35-6.223,5.373-12.207,8.342-18.176c3.57-7.179,7-14.475,11.215-21.272
		c5.061-8.161,10.889-15.846,16.37-23.748c0.438-0.633,0.762-1.345,1.165-2.067c-4.11-1.637-7.885-3.374-11.809-4.646
		c-5.738-1.861-11.502-3.795-17.398-4.989c-27.742-5.618-55.479-6.238-83.069,1.054c-5.674,1.5-11.273,3.298-16.862,5.096
		c-8.352,2.686-16.367,6.18-23.925,10.646c-5.503,3.252-11.132,6.357-16.31,10.08c-6.586,4.734-13,9.769-19.061,15.156
		c-5.16,4.586-9.805,9.77-14.513,14.842c-7.27,7.831-13.225,16.631-18.664,25.81c-5.686,9.596-10.364,19.64-14.139,30.133
		c-5.526,15.363-8.76,31.187-9.893,47.458c-0.251,3.616-0.548,7.229-0.823,10.844c0-82.961,0-165.923,0-248.885
		C149.999,250.455,299.542,250.455,449.085,250.455z M664.497,663.57c38.496,15.469,77.374,18.016,116.911,6.993
		c39.463-11.002,71.152-33.549,95.193-66.589c22.625-31.093,33.939-66.219,33.449-104.569
		c-0.663-51.794-20.475-95.604-58.79-130.478c-26.02-23.682-56.824-38.254-91.771-43.107c-32.442-4.505-64.121-1.345-94.813,11.843
		c36.459,48.292,55.08,102.514,55.071,162.98C719.738,561.083,701.107,615.269,664.497,663.57z"/>
	<path style="display:none;fill-rule:evenodd;clip-rule:evenodd;" d="M2.455,499.34c0.275-3.615,0.572-7.228,0.823-10.844
		c1.132-16.271,4.366-32.095,9.893-47.458c3.774-10.493,8.453-20.537,14.139-30.133c5.438-9.179,11.394-17.979,18.664-25.81
		c4.708-5.072,9.354-10.255,14.513-14.842c6.061-5.387,12.475-10.422,19.061-15.156c5.177-3.722,10.806-6.827,16.31-10.08
		c7.558-4.466,15.573-7.96,23.925-10.646c5.589-1.798,11.188-3.597,16.862-5.096c27.589-7.292,55.327-6.672,83.069-1.054
		c5.896,1.194,11.661,3.128,17.398,4.989c3.924,1.272,7.699,3.009,11.809,4.646c-0.403,0.722-0.727,1.434-1.165,2.067
		c-5.481,7.902-11.309,15.587-16.37,23.748c-4.214,6.797-7.645,14.093-11.215,21.272c-2.969,5.969-5.992,11.953-8.342,18.176
		c-2.7,7.15-4.777,14.543-6.95,21.883c-1.795,6.064-3.62,12.145-4.919,18.326c-1.643,7.813-2.856,15.722-4.078,23.617
		c-0.67,4.324-1.189,8.695-1.396,13.063c-0.351,7.405-0.41,14.825-0.571,22.239c-0.036,1.667,0.063,3.338,0.017,5.004
		c-0.285,10.249,0.941,20.368,2.617,30.442c1.362,8.182,2.709,16.371,4.332,24.502c0.822,4.12,2.221,8.126,3.393,12.174
		c1.273,4.399,2.417,8.846,3.92,13.166c2.018,5.797,4.232,11.53,6.542,17.218c1.745,4.295,3.667,8.527,5.705,12.692
		c1.905,3.894,3.923,7.749,6.146,11.469c4.744,7.937,9.578,15.821,14.532,23.628c1.839,2.898,4.033,5.586,6.221,8.241
		c1.734,2.104,1.716,2.599-0.858,3.543c-8.23,3.019-16.504,5.816-25.048,7.936c-24.847,6.161-49.821,6.227-74.862,1.929
		c-7.791-1.337-15.551-3.346-23.023-5.924c-8.452-2.917-16.703-6.53-24.776-10.394c-5.819-2.786-11.426-6.16-16.728-9.847
		c-6.73-4.679-13.416-9.544-19.46-15.055c-6.944-6.33-13.52-13.151-19.616-20.305c-9.085-10.661-16.485-22.538-22.569-35.162
		C9.289,554.451,3.609,530.055,2.793,504.5c-0.03-0.964-0.222-1.924-0.338-2.885C2.455,500.856,2.455,500.099,2.455,499.34z"/>
	<path style="fill-rule:evenodd;clip-rule:evenodd;" d="M246.024,672.569c-36.61-48.302-55.241-102.487-55.251-162.927
		c-0.009-60.466,18.612-114.688,55.071-162.98c-30.691-13.188-62.37-16.348-94.813-11.843
		c-34.947,4.853-65.752,19.425-91.771,43.107C20.945,412.801,1.133,456.61,0.47,508.404c-0.49,38.351,10.824,73.477,33.449,104.569
		c24.041,33.04,55.73,55.587,95.193,66.589C168.65,690.585,207.528,688.038,246.024,672.569z"/>
	<path style="fill-rule:evenodd;clip-rule:evenodd;" d="M664.431,663.57c36.61-48.302,55.241-102.487,55.251-162.927
		c0.009-60.466-18.612-114.688-55.071-162.98c30.691-13.188,62.37-16.348,94.813-11.843c34.947,4.853,65.752,19.425,91.771,43.107
		c38.315,34.875,58.127,78.684,58.79,130.478c0.49,38.351-10.824,73.477-33.449,104.569c-24.041,33.04-55.73,55.587-95.193,66.589
		C741.805,681.586,702.927,679.039,664.431,663.57z"/>
</g>
</svg>
